# verts in mm, Y up
v 0 747 0
v 2692 747 0
v 2692 787 0
v 0 787 0
v 0 747 488
v 2692 747 488
v 2692 787 488
v 0 787 488
v 0 40 0
v 1219 40 0
v 1219 740 0
v 0 740 0
v 0 40 20
v 1219 40 20
v 1219 740 20
v 0 740 20
v 1235 40 0
v 2149 40 0
v 2149 740 0
v 1235 740 0
v 1235 40 20
v 2149 40 20
v 2149 740 20
v 1235 740 20
v 2165 40 0
v 2622 40 0
v 2622 740 0
v 2165 740 0
v 2165 40 20
v 2622 40 20
v 2622 740 20
v 2165 740 20
v 0 2310 0
v 2692 2310 0
v 2692 2590 0
v 0 2590 0
v 0 2310 488
v 2692 2310 488
v 2692 2590 488
v 0 2590 488
v -2200 0 0
v -1743 0 0
v -1743 2286 0
v -2200 2286 0
v -2200 0 20
v -1743 0 20
v -1743 2286 20
v -2200 2286 20
v -1743 0 0
v -1286 0 0
v -1286 2286 0
v -1743 2286 0
v -1743 0 20
v -1286 0 20
v -1286 2286 20
v -1743 2286 20
v -1286 0 0
v -828 0 0
v -828 2286 0
v -1286 2286 0
v -1286 0 20
v -828 0 20
v -828 2286 20
v -1286 2286 20
mtllib bhadravati_locked.mtl
usemtl Granite
f 1 2 3 4
f 5 8 7 6
f 1 5 6 2
f 4 3 7 8
f 1 4 8 5
f 2 6 7 3
usemtl Latte
f 9 10 11 12
f 13 16 15 14
f 9 13 14 10
f 12 11 15 16
f 9 12 16 13
f 10 14 15 11
usemtl Latte
f 17 18 19 20
f 21 24 23 22
f 17 21 22 18
f 20 19 23 24
f 17 20 24 21
f 18 22 23 19
usemtl Latte
f 25 26 27 28
f 29 32 31 30
f 25 29 30 26
f 28 27 31 32
f 25 28 32 29
f 26 30 31 27
usemtl Latte
f 33 34 35 36
f 37 40 39 38
f 33 37 38 34
f 36 35 39 40
f 33 36 40 37
f 34 38 39 35
usemtl Sonoma
f 41 42 43 44
f 45 48 47 46
f 41 45 46 42
f 44 43 47 48
f 41 44 48 45
f 42 46 47 43
usemtl Sonoma
f 49 50 51 52
f 53 56 55 54
f 49 53 54 50
f 52 51 55 56
f 49 52 56 53
f 50 54 55 51
usemtl Sonoma
f 57 58 59 60
f 61 64 63 62
f 57 61 62 58
f 60 59 63 64
f 57 60 64 61
f 58 62 63 59
